<?xml version="1.0" encoding="UTF-8" standalone="no"?>
<svg
   xmlns:dc="http://purl.org/dc/elements/1.1/"
   xmlns:cc="http://creativecommons.org/ns#"
   xmlns:rdf="http://www.w3.org/1999/02/22-rdf-syntax-ns#"
   xmlns:svg="http://www.w3.org/2000/svg"
   xmlns="http://www.w3.org/2000/svg"
   xmlns:xlink="http://www.w3.org/1999/xlink"
   xmlns:sodipodi="http://sodipodi.sourceforge.net/DTD/sodipodi-0.dtd"
   xmlns:inkscape="http://www.inkscape.org/namespaces/inkscape"
   width="128"
   height="128"
   viewBox="0 0 128 128"
   id="svg2"
   version="1.1"
   inkscape:version="0.91 r13725"
   sodipodi:docname="128x128.svg">
  <metadata
     id="metadata18">
    <rdf:RDF>
      <cc:Work
         rdf:about="">
        <dc:format>image/svg+xml</dc:format>
        <dc:type
           rdf:resource="http://purl.org/dc/dcmitype/StillImage" />
        <dc:title></dc:title>
      </cc:Work>
    </rdf:RDF>
  </metadata>
  <defs
     id="defs16">
    <linearGradient
       inkscape:collect="always"
       xlink:href="#linearGradient3825"
       id="linearGradient3762"
       gradientUnits="userSpaceOnUse"
       gradientTransform="matrix(0.30529516,0,0,0.30529516,48.471341,79.242433)"
       x1="63.535717"
       y1="90"
       x2="32.07143"
       y2="6" />
    <linearGradient
       id="linearGradient3825">
      <stop
         id="stop3827"
         style="stop-color:#b3b3b3;stop-opacity:1"
         offset="0" />
      <stop
         id="stop3829"
         style="stop-color:#d2d2d2;stop-opacity:1"
         offset="1" />
    </linearGradient>
    <linearGradient
       inkscape:collect="always"
       xlink:href="#linearGradient3825"
       id="linearGradient3748"
       gradientUnits="userSpaceOnUse"
       gradientTransform="matrix(0.30529516,0,0,0.30529516,19.977128,79.242433)"
       x1="63.535717"
       y1="90"
       x2="32.07143"
       y2="6" />
    <linearGradient
       inkscape:collect="always"
       xlink:href="#linearGradient3825"
       id="linearGradient3568"
       gradientUnits="userSpaceOnUse"
       gradientTransform="matrix(0.30529516,0,0,0.30529516,76.957718,79.264752)"
       x1="63.535717"
       y1="90"
       x2="32.07143"
       y2="6" />
    <linearGradient
       inkscape:collect="always"
       xlink:href="#linearGradient3825"
       id="linearGradient3554"
       gradientUnits="userSpaceOnUse"
       gradientTransform="matrix(0.30529516,0,0,0.30529516,82.656565,50.77055)"
       x1="63.535717"
       y1="90"
       x2="32.07143"
       y2="6" />
    <linearGradient
       inkscape:collect="always"
       xlink:href="#linearGradient3825"
       id="linearGradient3540"
       gradientUnits="userSpaceOnUse"
       gradientTransform="matrix(0.30529516,0,0,0.30529516,54.162352,50.77055)"
       x1="63.535717"
       y1="90"
       x2="32.07143"
       y2="6" />
    <linearGradient
       inkscape:collect="always"
       xlink:href="#linearGradient3825"
       id="linearGradient3526"
       gradientUnits="userSpaceOnUse"
       gradientTransform="matrix(0.30529516,0,0,0.30529516,25.668126,50.77055)"
       x1="63.535717"
       y1="90"
       x2="32.07143"
       y2="6" />
    <linearGradient
       inkscape:collect="always"
       xlink:href="#linearGradient3825"
       id="linearGradient3512"
       gradientUnits="userSpaceOnUse"
       gradientTransform="matrix(0.30529516,0,0,0.30529516,74.108303,22.276321)"
       x1="63.535717"
       y1="90"
       x2="32.07143"
       y2="6" />
    <linearGradient
       inkscape:collect="always"
       xlink:href="#linearGradient3825"
       id="linearGradient3498"
       gradientUnits="userSpaceOnUse"
       gradientTransform="matrix(0.30529516,0,0,0.30529516,45.61409,22.276321)"
       x1="63.535717"
       y1="90"
       x2="32.07143"
       y2="6" />
    <linearGradient
       inkscape:collect="always"
       xlink:href="#linearGradient3825"
       id="linearGradient3484"
       gradientUnits="userSpaceOnUse"
       gradientTransform="matrix(0.30529516,0,0,0.30529516,17.119878,22.276321)"
       x1="63.535717"
       y1="90"
       x2="32.07143"
       y2="6" />
    <radialGradient
       cx="48"
       cy="90.171875"
       r="42"
       fx="48"
       fy="90.171875"
       id="radialGradient3619"
       xlink:href="#linearGradient3737"
       gradientUnits="userSpaceOnUse"
       gradientTransform="matrix(1.6488361,0,0,1.4188805,-14.601746,-4.1052536)" />
    <linearGradient
       id="linearGradient3737">
      <stop
         id="stop3739"
         style="stop-color:#ffffff;stop-opacity:1"
         offset="0" />
      <stop
         id="stop3741"
         style="stop-color:#ffffff;stop-opacity:0"
         offset="1" />
    </linearGradient>
    <linearGradient
       x1="48"
       y1="90"
       x2="48"
       y2="5.9877172"
       id="linearGradient3617"
       xlink:href="#linearGradient3641"
       gradientUnits="userSpaceOnUse"
       gradientTransform="matrix(1.4247108,0,0,1.4247108,-3.8437295,-4.3861194)" />
    <linearGradient
       id="linearGradient3641">
      <stop
         id="stop3643"
         style="stop-color:#b4b4b4;stop-opacity:1"
         offset="0" />
      <stop
         id="stop3645"
         style="stop-color:#dcdcdc;stop-opacity:1"
         offset="1" />
    </linearGradient>
  </defs>
  <sodipodi:namedview
     pagecolor="#ffffff"
     bordercolor="#666666"
     borderopacity="1"
     objecttolerance="10"
     gridtolerance="10"
     guidetolerance="10"
     inkscape:pageopacity="0"
     inkscape:pageshadow="2"
     inkscape:window-width="1280"
     inkscape:window-height="964"
     id="namedview14"
     showgrid="false"
     inkscape:zoom="1.84375"
     inkscape:cx="64"
     inkscape:cy="64"
     inkscape:window-x="0"
     inkscape:window-y="0"
     inkscape:window-maximized="1"
     inkscape:current-layer="svg2" />
  <rect
     style="fill:url(#linearGradient3617);fill-opacity:1;fill-rule:nonzero;stroke:none"
     id="rect2419"
     y="4.1621451"
     x="4.7045274"
     ry="8.5482645"
     rx="8.5482645"
     height="119.6757"
     width="119.6757" />
  <path
     style="opacity:0.3;fill:url(#radialGradient3619);fill-opacity:1;fill-rule:nonzero;stroke:none"
     id="path3615"
     d="m 13.252806,123.83785 c -4.735755,0 -8.5482757,-3.81252 -8.5482757,-8.54827 l 0,-2.84942 0,-96.880327 0,-2.849431 c 0,-0.476866 0.058919,-0.927049 0.1336159,-1.380174 0.069438,-0.42114 0.1382612,-0.850438 0.2671385,-1.246638 0.014149,-0.04327 0.02966,-0.09061 0.044636,-0.1336158 C 5.2907714,9.5399992 5.4845559,9.1700252 5.6841843,8.7924064 5.8902016,8.4027337 6.1338444,8.0293085 6.3965326,7.6793442 6.6592261,7.3293933 6.9290582,7.0047773 7.2424697,6.6998579 7.8692552,6.0899953 8.5858345,5.5393908 9.3795266,5.141573 9.7763699,4.9426574 10.196554,4.7897479 10.626149,4.6518445 10.261138,4.7946174 9.9327179,4.9884473 9.6021433,5.1860947 c -0.010679,0.00534 -0.033985,-0.00534 -0.044637,0 -0.045571,0.027497 -0.088712,0.060681 -0.1336155,0.088979 C 9.2523658,5.384423 9.0947444,5.5080277 8.9341463,5.6312561 8.782884,5.7463981 8.6302815,5.8607925 8.4889263,5.9874353 8.2354164,6.2174256 7.9938985,6.4795104 7.776565,6.7443022 7.6233005,6.9298963 7.4654174,7.1222578 7.3313423,7.3231009 c -0.03572,0.054728 -0.054728,0.1222966 -0.088979,0.1780923 -0.09221,0.146804 -0.1855406,0.2913815 -0.2671385,0.4452227 -0.1438941,0.2773979 -0.293026,0.5922537 -0.4006876,0.8904455 -0.012013,0.031155 -0.033557,0.057691 -0.044636,0.08898 -0.045437,0.131053 -0.051097,0.26619 -0.088979,0.400714 -0.043275,0.151876 -0.1003254,0.289251 -0.133616,0.445223 C 6.2034823,10.258327 6.1292126,10.766513 6.1292126,11.285528 l 0,2.849415 0,96.880337 0,2.84942 c 0,3.96333 3.1602133,7.12356 7.1235534,7.12356 l 2.849415,0 96.880329,0 2.84944,0 c 3.96332,0 7.12355,-3.16023 7.12355,-7.12356 l 0,-2.84942 0,-96.880337 0,-2.849415 c 0,-0.519015 -0.0743,-1.027201 -0.17809,-1.5137496 -0.0628,-0.294767 -0.12593,-0.566556 -0.22262,-0.845937 -0.0109,-0.031289 -0.0333,-0.057985 -0.0446,-0.08898 -0.0894,-0.2475299 -0.19718,-0.5235075 -0.31165,-0.7568829 -0.0592,-0.1179985 -0.11258,-0.2421372 -0.17809,-0.3561686 -0.0778,-0.1385281 -0.18063,-0.2683505 -0.26712,-0.400701 -0.13402,-0.2008377 -0.29196,-0.393218 -0.44523,-0.5787986 -0.20398,-0.2485444 -0.43188,-0.4943657 -0.66784,-0.7123586 -0.0157,-0.014416 -0.0285,-0.030194 -0.0446,-0.044476 -0.19716,-0.1788932 -0.40616,-0.3340025 -0.62331,-0.4897418 -0.14614,-0.1042231 -0.29109,-0.2185108 -0.44522,-0.3116629 -0.0109,-0.00534 -0.034,0.00534 -0.0446,0 -0.33058,-0.1976341 -0.65899,-0.3914773 -1.02401,-0.5342609 0.4296,0.1379141 0.84978,0.2908396 1.24663,0.4897418 0.79369,0.3978152 1.51027,0.9484196 2.13707,1.5582716 0.3134,0.30493 0.58322,0.6295353 0.84592,0.979497 0.26269,0.349951 0.50634,0.7233762 0.71236,1.1130488 0.19964,0.3776322 0.39341,0.7475922 0.53425,1.1575842 0.0149,0.04383 0.0305,0.089411 0.0446,0.1336165 0.12889,0.3962 0.19774,0.825485 0.26714,1.246624 0.0747,0.453125 0.13361,0.903322 0.13361,1.380188 l 0,2.849431 0,96.880327 0,2.84942 c 0,4.73572 -3.81252,8.54825 -8.54826,8.54825 l -102.579175,0 z"
     inkscape:connector-curvature="0" />
  <path
     inkscape:connector-curvature="0"
     style="color:#000000;display:inline;overflow:visible;visibility:visible;opacity:0.7;fill:#000000;fill-opacity:1;fill-rule:nonzero;stroke:none;stroke-width:1;marker:none;enable-background:accumulate"
     id="rect3914"
     d="m 20.376358,21.258678 c -2.367882,0 -4.274137,1.906265 -4.274137,4.274137 l 0,22.795356 c 0,2.367869 1.906255,4.274137 4.274137,4.274137 l 4.274125,0 0,1.42472 0,1.424709 0,21.370659 0,1.424712 -1.424709,0 c -2.36787,0 -4.274135,1.906263 -4.274135,4.274135 l 0,22.795357 c 0,2.36787 1.906265,4.27413 4.274135,4.27413 l 79.783796,0 c 2.36787,0 4.27414,-1.90626 4.27414,-4.27413 l 0,-22.795357 0,-1.424711 1.42472,0 c 2.36787,0 4.27412,-1.90629 4.27412,-4.274136 l 0,-22.795368 c 0,-2.367869 -1.90625,-4.274138 -4.27412,-4.274138 l -4.27414,0 0,-1.424719 0,-1.424696 0,-21.37066 c 0,-2.367872 -1.90627,-4.274137 -4.27414,-4.274137 l -79.783792,0 z" />
  <rect
     width="25.644794"
     height="25.644794"
     rx="1.8317708"
     ry="1.8317708"
     x="18.951614"
     y="24.108095"
     id="rect2419-0"
     style="fill:url(#linearGradient3484);fill-opacity:1;fill-rule:nonzero;stroke:none" />
  <rect
     width="25.644794"
     height="25.644794"
     rx="1.8317708"
     ry="1.8317708"
     x="47.445839"
     y="24.108095"
     id="rect3971"
     style="fill:url(#linearGradient3498);fill-opacity:1;fill-rule:nonzero;stroke:none" />
  <rect
     width="25.644794"
     height="25.644794"
     rx="1.8317708"
     ry="1.8317708"
     x="75.940079"
     y="24.108095"
     id="rect4003"
     style="fill:url(#linearGradient3512);fill-opacity:1;fill-rule:nonzero;stroke:none" />
  <rect
     width="25.644794"
     height="25.644794"
     rx="1.8317708"
     ry="1.8317708"
     x="27.499912"
     y="52.602329"
     id="rect4035"
     style="fill:url(#linearGradient3526);fill-opacity:1;fill-rule:nonzero;stroke:none" />
  <rect
     width="25.644794"
     height="25.644794"
     rx="1.8317708"
     ry="1.8317708"
     x="55.994148"
     y="52.602329"
     id="rect4053"
     style="fill:url(#linearGradient3540);fill-opacity:1;fill-rule:nonzero;stroke:none" />
  <rect
     width="25.644794"
     height="25.644794"
     rx="1.8317708"
     ry="1.8317708"
     x="84.488335"
     y="52.602329"
     id="rect4071"
     style="fill:url(#linearGradient3554);fill-opacity:1;fill-rule:nonzero;stroke:none" />
  <rect
     width="25.644794"
     height="25.644794"
     rx="1.8317708"
     ry="1.8317708"
     x="78.789497"
     y="81.096512"
     id="rect4131"
     style="fill:url(#linearGradient3568);fill-opacity:1;fill-rule:nonzero;stroke:none" />
  <rect
     style="fill:url(#linearGradient3748);fill-opacity:1;fill-rule:nonzero;stroke:none"
     id="rect3705"
     y="81.074211"
     x="21.808893"
     ry="1.8317708"
     rx="1.8317708"
     height="25.644794"
     width="25.644794" />
  <rect
     style="fill:url(#linearGradient3762);fill-opacity:1;fill-rule:nonzero;stroke:none"
     id="rect3724"
     y="81.074211"
     x="50.303116"
     ry="1.8317708"
     rx="1.8317708"
     height="25.644794"
     width="25.644794" />
  <text
     xml:space="preserve"
     style="font-style:normal;font-weight:normal;font-size:12.82239723px;line-height:125%;font-family:Sans;letter-spacing:0px;word-spacing:0px;fill:#343434;fill-opacity:1;stroke:none"
     x="23.581951"
     y="38.399757"
     id="text3777"
     sodipodi:linespacing="125%"><tspan
       sodipodi:role="line"
       id="tspan3779"
       x="23.581951"
       y="38.399757"
       style="font-style:normal;font-variant:normal;font-weight:normal;font-stretch:normal;font-size:12.82239723px;line-height:125%;font-family:Amiri;-inkscape-font-specification:Amiri;text-align:start;writing-mode:lr-tb;text-anchor:start;fill:#343434;fill-opacity:1">ض</tspan></text>
  <text
     xml:space="preserve"
     style="font-style:normal;font-weight:normal;font-size:12.82239723px;line-height:125%;font-family:Sans;letter-spacing:0px;word-spacing:0px;fill:#343434;fill-opacity:1;stroke:none"
     x="52.654957"
     y="38.399757"
     id="text4551"
     sodipodi:linespacing="125%"><tspan
       sodipodi:role="line"
       id="tspan4553"
       x="52.654957"
       y="38.399757"
       style="font-style:normal;font-variant:normal;font-weight:normal;font-stretch:normal;font-size:12.82239723px;line-height:125%;font-family:Amiri;-inkscape-font-specification:Amiri;text-align:start;writing-mode:lr-tb;text-anchor:start">ص</tspan></text>
  <text
     xml:space="preserve"
     style="font-style:normal;font-weight:normal;font-size:12.82239723px;line-height:125%;font-family:Sans;letter-spacing:0px;word-spacing:0px;fill:#343434;fill-opacity:1;stroke:none"
     x="83.581665"
     y="41.516254"
     id="text4555"
     sodipodi:linespacing="125%"><tspan
       sodipodi:role="line"
       id="tspan4557"
       x="83.581665"
       y="41.516254"
       style="font-style:normal;font-variant:normal;font-weight:normal;font-stretch:normal;font-size:12.82239723px;line-height:125%;font-family:Amiri;-inkscape-font-specification:Amiri;text-align:start;writing-mode:lr-tb;text-anchor:start">ث</tspan></text>
  <text
     xml:space="preserve"
     style="font-style:normal;font-weight:normal;font-size:12.82239723px;line-height:125%;font-family:Sans;letter-spacing:0px;word-spacing:0px;fill:#000000;fill-opacity:1;stroke:none"
     x="36.453182"
     y="66.148109"
     id="text4559"
     sodipodi:linespacing="125%"><tspan
       sodipodi:role="line"
       id="tspan4561"
       x="36.453182"
       y="66.148109"
       style="font-style:normal;font-variant:normal;font-weight:normal;font-stretch:normal;font-size:12.82239723px;line-height:125%;font-family:Amiri;-inkscape-font-specification:Amiri;text-align:start;writing-mode:lr-tb;text-anchor:start;fill:#343434;fill-opacity:1">م</tspan></text>
  <text
     xml:space="preserve"
     style="font-style:normal;font-weight:normal;font-size:12.82239723px;line-height:125%;font-family:Sans;letter-spacing:0px;word-spacing:0px;fill:#343434;fill-opacity:1;stroke:none"
     x="64.409172"
     y="68.918503"
     id="text4565"
     sodipodi:linespacing="125%"><tspan
       sodipodi:role="line"
       id="tspan4567"
       x="64.409172"
       y="68.918503"
       style="font-style:normal;font-variant:normal;font-weight:normal;font-stretch:normal;font-size:12.82239723px;line-height:125%;font-family:Amiri;-inkscape-font-specification:Amiri;text-align:start;writing-mode:lr-tb;text-anchor:start">ل</tspan></text>
  <text
     xml:space="preserve"
     style="font-style:normal;font-weight:normal;font-size:12.82239723px;line-height:125%;font-family:Sans;letter-spacing:0px;word-spacing:0px;fill:#000000;fill-opacity:1;stroke:none"
     x="92.868896"
     y="70.303719"
     id="text4569"
     sodipodi:linespacing="125%"><tspan
       sodipodi:role="line"
       id="tspan4571"
       x="92.868896"
       y="70.303719"
       style="font-style:normal;font-variant:normal;font-weight:normal;font-stretch:normal;font-size:12.82239723px;line-height:125%;font-family:Amiri;-inkscape-font-specification:Amiri;text-align:start;writing-mode:lr-tb;text-anchor:start;fill:#343434;fill-opacity:1">ك</tspan></text>
  <text
     xml:space="preserve"
     style="font-style:normal;font-weight:normal;font-size:12.82239723px;line-height:125%;font-family:Sans;letter-spacing:0px;word-spacing:0px;fill:#000000;fill-opacity:1;stroke:none"
     x="30.26029"
     y="94.16185"
     id="text4573"
     sodipodi:linespacing="125%"><tspan
       sodipodi:role="line"
       id="tspan4575"
       x="30.26029"
       y="94.16185"
       style="font-style:normal;font-variant:normal;font-weight:normal;font-stretch:normal;font-size:12.82239723px;line-height:125%;font-family:Amiri;-inkscape-font-specification:Amiri;text-align:start;writing-mode:lr-tb;text-anchor:start;fill:#343434;fill-opacity:1">غ</tspan></text>
  <text
     xml:space="preserve"
     style="font-style:normal;font-weight:normal;font-size:12.82239723px;line-height:125%;font-family:Sans;letter-spacing:0px;word-spacing:0px;fill:#000000;fill-opacity:1;stroke:none"
     x="58.487362"
     y="94.072807"
     id="text4581"
     sodipodi:linespacing="125%"><tspan
       sodipodi:role="line"
       id="tspan4583"
       x="58.487362"
       y="94.072807"
       style="font-style:normal;font-variant:normal;font-weight:normal;font-stretch:normal;font-size:12.82239723px;line-height:125%;font-family:Amiri;-inkscape-font-specification:Amiri;text-align:start;writing-mode:lr-tb;text-anchor:start;fill:#343434;fill-opacity:1">ع</tspan></text>
  <text
     xml:space="preserve"
     style="font-style:normal;font-weight:normal;font-size:12.82239723px;line-height:125%;font-family:Sans;letter-spacing:0px;word-spacing:0px;fill:#000000;fill-opacity:1;stroke:none"
     x="86.981583"
     y="92.91259"
     id="text4585"
     sodipodi:linespacing="125%"><tspan
       sodipodi:role="line"
       id="tspan4587"
       x="86.981583"
       y="92.91259"
       style="font-style:normal;font-variant:normal;font-weight:normal;font-stretch:normal;font-size:12.82239723px;line-height:125%;font-family:Amiri;-inkscape-font-specification:Amiri;text-align:start;writing-mode:lr-tb;text-anchor:start;fill:#343434;fill-opacity:1">خ</tspan></text>
</svg>
